<mxfile host="app.diagrams.net" modified="2023-09-12T05:28:44.247Z" agent="Mozilla/5.0 (Windows NT 10.0; Win64; x64) AppleWebKit/537.36 (KHTML, like Gecko) Chrome/112.0.0.0 Safari/537.36" etag="Tal8CR20MwZKtljL-b-1" version="21.7.4" type="github">
  <diagram id="C5RBs43oDa-KdzZeNtuy" name="Page-1">
    <mxGraphModel dx="1434" dy="708" grid="1" gridSize="10" guides="1" tooltips="1" connect="1" arrows="1" fold="1" page="1" pageScale="1" pageWidth="827" pageHeight="1169" math="0" shadow="0">
      <root>
        <mxCell id="WIyWlLk6GJQsqaUBKTNV-0" />
        <mxCell id="WIyWlLk6GJQsqaUBKTNV-1" parent="WIyWlLk6GJQsqaUBKTNV-0" />
        <mxCell id="YT1aZx3LxSvRVwq9kxNc-33" value="" style="edgeStyle=orthogonalEdgeStyle;rounded=0;orthogonalLoop=1;jettySize=auto;html=1;" edge="1" parent="WIyWlLk6GJQsqaUBKTNV-1" source="YT1aZx3LxSvRVwq9kxNc-30" target="YT1aZx3LxSvRVwq9kxNc-32">
          <mxGeometry relative="1" as="geometry" />
        </mxCell>
        <mxCell id="YT1aZx3LxSvRVwq9kxNc-30" value="未提交" style="rounded=1;whiteSpace=wrap;html=1;" vertex="1" parent="WIyWlLk6GJQsqaUBKTNV-1">
          <mxGeometry x="315" y="80" width="120" height="60" as="geometry" />
        </mxCell>
        <mxCell id="YT1aZx3LxSvRVwq9kxNc-36" value="" style="edgeStyle=orthogonalEdgeStyle;rounded=0;orthogonalLoop=1;jettySize=auto;html=1;" edge="1" parent="WIyWlLk6GJQsqaUBKTNV-1" source="YT1aZx3LxSvRVwq9kxNc-32" target="YT1aZx3LxSvRVwq9kxNc-35">
          <mxGeometry relative="1" as="geometry" />
        </mxCell>
        <mxCell id="YT1aZx3LxSvRVwq9kxNc-43" value="" style="edgeStyle=orthogonalEdgeStyle;rounded=0;orthogonalLoop=1;jettySize=auto;html=1;" edge="1" parent="WIyWlLk6GJQsqaUBKTNV-1" source="YT1aZx3LxSvRVwq9kxNc-32" target="YT1aZx3LxSvRVwq9kxNc-42">
          <mxGeometry relative="1" as="geometry" />
        </mxCell>
        <mxCell id="YT1aZx3LxSvRVwq9kxNc-32" value="待诊断" style="rounded=1;whiteSpace=wrap;html=1;" vertex="1" parent="WIyWlLk6GJQsqaUBKTNV-1">
          <mxGeometry x="315" y="220" width="120" height="60" as="geometry" />
        </mxCell>
        <mxCell id="YT1aZx3LxSvRVwq9kxNc-34" value="提交" style="text;html=1;align=center;verticalAlign=middle;resizable=0;points=[];autosize=1;strokeColor=none;fillColor=none;" vertex="1" parent="WIyWlLk6GJQsqaUBKTNV-1">
          <mxGeometry x="375" y="158" width="50" height="30" as="geometry" />
        </mxCell>
        <mxCell id="YT1aZx3LxSvRVwq9kxNc-40" style="edgeStyle=orthogonalEdgeStyle;rounded=0;orthogonalLoop=1;jettySize=auto;html=1;entryX=1;entryY=0.5;entryDx=0;entryDy=0;" edge="1" parent="WIyWlLk6GJQsqaUBKTNV-1" source="YT1aZx3LxSvRVwq9kxNc-35" target="YT1aZx3LxSvRVwq9kxNc-32">
          <mxGeometry relative="1" as="geometry" />
        </mxCell>
        <mxCell id="YT1aZx3LxSvRVwq9kxNc-35" value="已撤回" style="rounded=1;whiteSpace=wrap;html=1;" vertex="1" parent="WIyWlLk6GJQsqaUBKTNV-1">
          <mxGeometry x="600" y="220" width="120" height="60" as="geometry" />
        </mxCell>
        <mxCell id="YT1aZx3LxSvRVwq9kxNc-37" value="撤回" style="text;html=1;align=center;verticalAlign=middle;resizable=0;points=[];autosize=1;strokeColor=none;fillColor=none;" vertex="1" parent="WIyWlLk6GJQsqaUBKTNV-1">
          <mxGeometry x="480" y="220" width="50" height="30" as="geometry" />
        </mxCell>
        <mxCell id="YT1aZx3LxSvRVwq9kxNc-39" value="提交" style="text;html=1;align=center;verticalAlign=middle;resizable=0;points=[];autosize=1;strokeColor=none;fillColor=none;" vertex="1" parent="WIyWlLk6GJQsqaUBKTNV-1">
          <mxGeometry x="480" y="260" width="50" height="30" as="geometry" />
        </mxCell>
        <mxCell id="YT1aZx3LxSvRVwq9kxNc-51" value="" style="edgeStyle=orthogonalEdgeStyle;rounded=0;orthogonalLoop=1;jettySize=auto;html=1;" edge="1" parent="WIyWlLk6GJQsqaUBKTNV-1" source="YT1aZx3LxSvRVwq9kxNc-42" target="YT1aZx3LxSvRVwq9kxNc-50">
          <mxGeometry relative="1" as="geometry" />
        </mxCell>
        <mxCell id="YT1aZx3LxSvRVwq9kxNc-59" value="" style="edgeStyle=orthogonalEdgeStyle;rounded=0;orthogonalLoop=1;jettySize=auto;html=1;" edge="1" parent="WIyWlLk6GJQsqaUBKTNV-1" source="YT1aZx3LxSvRVwq9kxNc-42" target="YT1aZx3LxSvRVwq9kxNc-58">
          <mxGeometry relative="1" as="geometry" />
        </mxCell>
        <mxCell id="YT1aZx3LxSvRVwq9kxNc-42" value="诊断中" style="whiteSpace=wrap;html=1;rounded=1;" vertex="1" parent="WIyWlLk6GJQsqaUBKTNV-1">
          <mxGeometry x="315" y="360" width="120" height="60" as="geometry" />
        </mxCell>
        <mxCell id="YT1aZx3LxSvRVwq9kxNc-44" value="专家开始诊断" style="text;html=1;align=center;verticalAlign=middle;resizable=0;points=[];autosize=1;strokeColor=none;fillColor=none;" vertex="1" parent="WIyWlLk6GJQsqaUBKTNV-1">
          <mxGeometry x="390" y="308" width="100" height="30" as="geometry" />
        </mxCell>
        <mxCell id="YT1aZx3LxSvRVwq9kxNc-55" value="" style="edgeStyle=orthogonalEdgeStyle;rounded=0;orthogonalLoop=1;jettySize=auto;html=1;" edge="1" parent="WIyWlLk6GJQsqaUBKTNV-1" source="YT1aZx3LxSvRVwq9kxNc-50" target="YT1aZx3LxSvRVwq9kxNc-54">
          <mxGeometry relative="1" as="geometry" />
        </mxCell>
        <mxCell id="YT1aZx3LxSvRVwq9kxNc-64" value="" style="edgeStyle=orthogonalEdgeStyle;rounded=0;orthogonalLoop=1;jettySize=auto;html=1;" edge="1" parent="WIyWlLk6GJQsqaUBKTNV-1" source="YT1aZx3LxSvRVwq9kxNc-50" target="YT1aZx3LxSvRVwq9kxNc-63">
          <mxGeometry relative="1" as="geometry" />
        </mxCell>
        <mxCell id="YT1aZx3LxSvRVwq9kxNc-50" value="已签发" style="whiteSpace=wrap;html=1;rounded=1;" vertex="1" parent="WIyWlLk6GJQsqaUBKTNV-1">
          <mxGeometry x="315" y="500" width="120" height="60" as="geometry" />
        </mxCell>
        <mxCell id="YT1aZx3LxSvRVwq9kxNc-52" value="专家操作签发按钮&lt;br&gt;" style="text;html=1;align=center;verticalAlign=middle;resizable=0;points=[];autosize=1;strokeColor=none;fillColor=none;" vertex="1" parent="WIyWlLk6GJQsqaUBKTNV-1">
          <mxGeometry x="390" y="440" width="120" height="30" as="geometry" />
        </mxCell>
        <mxCell id="YT1aZx3LxSvRVwq9kxNc-54" value="已发布" style="whiteSpace=wrap;html=1;rounded=1;" vertex="1" parent="WIyWlLk6GJQsqaUBKTNV-1">
          <mxGeometry x="315" y="640" width="120" height="60" as="geometry" />
        </mxCell>
        <mxCell id="YT1aZx3LxSvRVwq9kxNc-56" value="发布" style="text;html=1;align=center;verticalAlign=middle;resizable=0;points=[];autosize=1;strokeColor=none;fillColor=none;" vertex="1" parent="WIyWlLk6GJQsqaUBKTNV-1">
          <mxGeometry x="385" y="578" width="50" height="30" as="geometry" />
        </mxCell>
        <mxCell id="YT1aZx3LxSvRVwq9kxNc-61" style="edgeStyle=orthogonalEdgeStyle;rounded=0;orthogonalLoop=1;jettySize=auto;html=1;entryX=0;entryY=0.5;entryDx=0;entryDy=0;" edge="1" parent="WIyWlLk6GJQsqaUBKTNV-1" source="YT1aZx3LxSvRVwq9kxNc-58" target="YT1aZx3LxSvRVwq9kxNc-32">
          <mxGeometry relative="1" as="geometry">
            <mxPoint x="140" y="240" as="targetPoint" />
            <Array as="points">
              <mxPoint x="140" y="250" />
            </Array>
          </mxGeometry>
        </mxCell>
        <mxCell id="YT1aZx3LxSvRVwq9kxNc-58" value="已退回" style="whiteSpace=wrap;html=1;rounded=1;" vertex="1" parent="WIyWlLk6GJQsqaUBKTNV-1">
          <mxGeometry x="80" y="360" width="120" height="60" as="geometry" />
        </mxCell>
        <mxCell id="YT1aZx3LxSvRVwq9kxNc-60" value="专家退回操作" style="text;html=1;align=center;verticalAlign=middle;resizable=0;points=[];autosize=1;strokeColor=none;fillColor=none;" vertex="1" parent="WIyWlLk6GJQsqaUBKTNV-1">
          <mxGeometry x="210" y="358" width="100" height="30" as="geometry" />
        </mxCell>
        <mxCell id="YT1aZx3LxSvRVwq9kxNc-62" value="补充下资料操作提交" style="text;html=1;align=center;verticalAlign=middle;resizable=0;points=[];autosize=1;strokeColor=none;fillColor=none;" vertex="1" parent="WIyWlLk6GJQsqaUBKTNV-1">
          <mxGeometry x="140" y="250" width="130" height="30" as="geometry" />
        </mxCell>
        <mxCell id="YT1aZx3LxSvRVwq9kxNc-66" style="edgeStyle=orthogonalEdgeStyle;rounded=0;orthogonalLoop=1;jettySize=auto;html=1;entryX=1;entryY=0.5;entryDx=0;entryDy=0;" edge="1" parent="WIyWlLk6GJQsqaUBKTNV-1" source="YT1aZx3LxSvRVwq9kxNc-63" target="YT1aZx3LxSvRVwq9kxNc-54">
          <mxGeometry relative="1" as="geometry">
            <mxPoint x="660" y="690" as="targetPoint" />
            <Array as="points">
              <mxPoint x="660" y="670" />
            </Array>
          </mxGeometry>
        </mxCell>
        <mxCell id="YT1aZx3LxSvRVwq9kxNc-63" value="复核中" style="whiteSpace=wrap;html=1;rounded=1;" vertex="1" parent="WIyWlLk6GJQsqaUBKTNV-1">
          <mxGeometry x="600" y="500" width="120" height="60" as="geometry" />
        </mxCell>
        <mxCell id="YT1aZx3LxSvRVwq9kxNc-65" value="复核操作" style="text;html=1;align=center;verticalAlign=middle;resizable=0;points=[];autosize=1;strokeColor=none;fillColor=none;" vertex="1" parent="WIyWlLk6GJQsqaUBKTNV-1">
          <mxGeometry x="480" y="500" width="70" height="30" as="geometry" />
        </mxCell>
        <mxCell id="YT1aZx3LxSvRVwq9kxNc-67" value="复核发布&lt;br&gt;" style="text;html=1;align=center;verticalAlign=middle;resizable=0;points=[];autosize=1;strokeColor=none;fillColor=none;" vertex="1" parent="WIyWlLk6GJQsqaUBKTNV-1">
          <mxGeometry x="515" y="638" width="70" height="30" as="geometry" />
        </mxCell>
      </root>
    </mxGraphModel>
  </diagram>
</mxfile>
